# xmcd
#
# Track frame offsets:
#	150
#	13364
#	25993
#	40118
#	59529
#	70712
#	84060
#	97912
#	107985
#	120845
#	133432
#	148036
#	161765
#	173511
#
# Disc length: 2531 seconds
#
# Revision: 1
# Processed by: cddbd v1.5.1PL2 Copyright (c) Steve Scherf et al.
# Submitted via: audiograbber 1.83.01
#
DISCID=b709e10e
DTITLE=John Cody Carter - Don't You Think It's Time
DYEAR=2004
DGENRE=Country
TTITLE0=Let's Stop Right Where We Are
TTITLE1=The Knot We Tied Together
TTITLE2=You Don't Love Me Anymore
TTITLE3=You're Just Leaving Out The Leaving
TTITLE4=Don't Walk Out On Me
TTITLE5=The American Way
TTITLE6=It's A Good Thing
TTITLE7=I Gotta Find Buck Down In Bakersfield
TTITLE8=God Sent Me An Angel
TTITLE9=Houston Bound
TTITLE10=Don't You Think It's Time
TTITLE11=Standing Invitation
TTITLE12=Dance With Me
TTITLE13=You'll Remember Me
EXTD=
EXTT0=
EXTT1=
EXTT2=
EXTT3=
EXTT4=
EXTT5=
EXTT6=
EXTT7=
EXTT8=
EXTT9=
EXTT10=
EXTT11=
EXTT12=
EXTT13=
PLAYORDER=
